<svg width="16" height="16" viewBox="0 0 16 16" fill="none" xmlns="http://www.w3.org/2000/svg">
<path d="M7.961 16V15H14.366C14.5193 15 14.6603 14.936 14.789 14.808C14.9177 14.68 14.9817 14.5387 14.981 14.384V1.616C14.981 1.462 14.917 1.32067 14.789 1.192C14.661 1.06333 14.5197 0.999333 14.365 1H7.962V0H14.366C14.826 0 15.21 0.154333 15.518 0.463C15.826 0.771667 15.9803 1.156 15.981 1.616V14.385C15.981 14.845 15.8267 15.2293 15.518 15.538C15.2093 15.8467 14.8253 16.0007 14.366 16H7.961ZM7.251 11.539L6.548 10.819L8.868 8.5H0V7.5H8.868L6.548 5.18L7.25 4.462L10.789 8L7.251 11.539Z" fill="black"/>
</svg>
